<?xml version="1.0" encoding="us-ascii" standalone="no"?><svg xmlns="http://www.w3.org/2000/svg" xmlns:xlink="http://www.w3.org/1999/xlink" contentStyleType="text/css" height="1795px" preserveAspectRatio="none" style="width:1190px;height:1795px;background:#F4F7F6;" version="1.1" viewBox="0 0 1190 1795" width="1190px" zoomAndPan="magnify"><defs/><g><rect fill="#F4F7F6" height="1795" style="stroke:none;stroke-width:1.0;" width="1190" x="0" y="0"/><text fill="#000000" font-family="Verdana" font-size="22" font-weight="bold" lengthAdjust="spacing" textLength="833" x="174.25" y="37.1182">Ocean View Resort &#8212; Enhanced Entity Relationship (EER) Diagram</text><text fill="#000000" font-family="Verdana" font-size="22" font-weight="bold" lengthAdjust="spacing" textLength="816" x="182.75" y="63.8555">(With OOP Concepts: Specialisation, Generalisation, Constraints)</text><!--class USER--><g id="elem_USER"><rect codeLine="30" fill="#FFFFFF" height="246.3291" id="USER" rx="2.5" ry="2.5" style="stroke:#00818A;stroke-width:1.0;" width="383" x="411" y="156.9746"/><rect fill="#2C3E50" height="39.168" rx="2.5" ry="2.5" style="stroke:#2C3E50;stroke-width:1.0;" width="383" x="411" y="156.9746"/><rect fill="#2C3E50" height="2.5" style="stroke:#2C3E50;stroke-width:1.0;" width="383" x="411" y="193.6426"/><rect codeLine="30" fill="none" height="246.3291" id="USER" rx="2.5" ry="2.5" style="stroke:#00818A;stroke-width:1.0;" width="383" x="411" y="156.9746"/><ellipse cx="504.75" cy="176.5586" fill="#FFFFFF" rx="9" ry="9" style="stroke:#000000;stroke-width:1.0;"/><path d="M507.5156,178.0898 L509.9063,178.8398 Q509.3594,180.8242 508.0781,181.793 Q506.8125,182.7617 504.8438,182.7617 Q502.4219,182.7617 500.8594,181.1055 Q499.3125,179.4492 499.3125,176.5742 Q499.3125,173.543 500.875,171.8711 Q502.4375,170.1836 505,170.1836 Q507.2344,170.1836 508.625,171.4961 Q509.4531,172.2773 509.875,173.7461 L507.4375,174.3242 Q507.2188,173.3711 506.5313,172.8242 Q505.8594,172.2773 504.875,172.2773 Q503.5156,172.2773 502.6719,173.2617 Q501.8438,174.2305 501.8438,176.4023 Q501.8438,178.6992 502.6719,179.6836 Q503.5,180.668 504.8281,180.668 Q505.8125,180.668 506.5156,180.043 Q507.2188,179.418 507.5156,178.0898 Z " fill="#000000"/><text fill="#1A252F" font-family="Verdana" font-size="12" lengthAdjust="spacing" textLength="33" x="599.75" y="174.0391">USER</text><text fill="#1A252F" font-family="Verdana" font-size="12" lengthAdjust="spacing" textLength="188" x="522.25" y="188.623">&#171;Superclass / Generalisation&#187;</text><line style="stroke:#00818A;stroke-width:1.0;" x1="412" x2="793" y1="196.1426" y2="196.1426"/><text fill="#000000" font-family="Verdana" font-size="14" lengthAdjust="spacing" textLength="133" x="417" y="214.2178">&#171;PK&#187; user_id : INT</text><text fill="#000000" font-family="Verdana" font-size="14" lengthAdjust="spacing" textLength="263" x="417" y="252.2471">username : VARCHAR(50) {UNIQUE}</text><text fill="#000000" font-family="Verdana" font-size="14" lengthAdjust="spacing" textLength="236" x="417" y="269.2617">password_hash : VARCHAR(255)</text><text fill="#000000" font-family="Verdana" font-size="14" lengthAdjust="spacing" textLength="238" x="417" y="286.2764">email : VARCHAR(100) {UNIQUE}</text><text fill="#000000" font-family="Verdana" font-size="14" lengthAdjust="spacing" textLength="142" x="417" y="303.291">role : VARCHAR(20)</text><line style="stroke:#00818A;stroke-width:1.0;stroke-dasharray:1.0,2.0;" x1="412" x2="527.5" y1="229.6646" y2="229.6646"/><text fill="#000000" font-family="Verdana" font-size="14" lengthAdjust="spacing" textLength="150" x="527.5" y="234.7324">mandatory attributes</text><line style="stroke:#00818A;stroke-width:1.0;stroke-dasharray:1.0,2.0;" x1="677.5" x2="793" y1="229.6646" y2="229.6646"/><text fill="#000000" font-family="Verdana" font-size="14" lengthAdjust="spacing" textLength="182" x="417" y="341.3203">otp_code : VARCHAR(10)</text><text fill="#000000" font-family="Verdana" font-size="14" lengthAdjust="spacing" textLength="174" x="417" y="358.335">otp_expiry : TIMESTAMP</text><line style="stroke:#00818A;stroke-width:1.0;stroke-dasharray:1.0,2.0;" x1="412" x2="537.5" y1="318.7378" y2="318.7378"/><text fill="#000000" font-family="Verdana" font-size="14" lengthAdjust="spacing" textLength="130" x="537.5" y="323.8057">optional attributes</text><line style="stroke:#00818A;stroke-width:1.0;stroke-dasharray:1.0,2.0;" x1="667.5" x2="793" y1="318.7378" y2="318.7378"/><text fill="#000000" font-family="Verdana" font-size="14" lengthAdjust="spacing" textLength="371" x="417" y="396.3643">{NOT NULL: username, password_hash, email, role}</text><line style="stroke:#00818A;stroke-width:1.0;stroke-dasharray:1.0,2.0;" x1="412" x2="563" y1="373.7817" y2="373.7817"/><text fill="#000000" font-family="Verdana" font-size="14" lengthAdjust="spacing" textLength="79" x="563" y="378.8496">constraints</text><line style="stroke:#00818A;stroke-width:1.0;stroke-dasharray:1.0,2.0;" x1="642" x2="793" y1="373.7817" y2="373.7817"/></g><!--class REC--><g id="elem_REC"><rect codeLine="49" fill="#FFFFFF" height="170.2705" id="REC" rx="2.5" ry="2.5" style="stroke:#00818A;stroke-width:1.0;" width="175" x="496" y="566.4746"/><rect fill="#2C3E50" height="39.168" rx="2.5" ry="2.5" style="stroke:#2C3E50;stroke-width:1.0;" width="175" x="496" y="566.4746"/><rect fill="#2C3E50" height="2.5" style="stroke:#2C3E50;stroke-width:1.0;" width="175" x="496" y="603.1426"/><rect codeLine="49" fill="none" height="170.2705" id="REC" rx="2.5" ry="2.5" style="stroke:#00818A;stroke-width:1.0;" width="175" x="496" y="566.4746"/><ellipse cx="533.75" cy="586.0586" fill="#FFFFFF" rx="9" ry="9" style="stroke:#000000;stroke-width:1.0;"/><path d="M536.5156,587.5898 L538.9063,588.3398 Q538.3594,590.3242 537.0781,591.293 Q535.8125,592.2617 533.8438,592.2617 Q531.4219,592.2617 529.8594,590.6055 Q528.3125,588.9492 528.3125,586.0742 Q528.3125,583.043 529.875,581.3711 Q531.4375,579.6836 534,579.6836 Q536.2344,579.6836 537.625,580.9961 Q538.4531,581.7773 538.875,583.2461 L536.4375,583.8242 Q536.2188,582.8711 535.5313,582.3242 Q534.8594,581.7773 533.875,581.7773 Q532.5156,581.7773 531.6719,582.7617 Q530.8438,583.7305 530.8438,585.9023 Q530.8438,588.1992 531.6719,589.1836 Q532.5,590.168 533.8281,590.168 Q534.8125,590.168 535.5156,589.543 Q536.2188,588.918 536.5156,587.5898 Z " fill="#000000"/><text fill="#1A252F" font-family="Verdana" font-size="12" lengthAdjust="spacing" textLength="92" x="551.25" y="583.5391">RECEPTIONIST</text><text fill="#1A252F" font-family="Verdana" font-size="12" lengthAdjust="spacing" textLength="71" x="561.75" y="598.123">&#171;Subclass&#187;</text><line style="stroke:#00818A;stroke-width:1.0;" x1="497" x2="670" y1="605.6426" y2="605.6426"/><text fill="#000000" font-family="Verdana" font-size="14" lengthAdjust="spacing" textLength="160" x="502" y="623.7178">role = 'RECEPTIONIST'</text><ellipse cx="507" cy="657.6792" fill="#FFFFFF" rx="3" ry="3" style="stroke:#000000;stroke-width:1.0;"/><text fill="#000000" font-family="Verdana" font-size="14" lengthAdjust="spacing" textLength="147" x="514" y="661.7471">canAddReservation()</text><ellipse cx="507" cy="674.6938" fill="#FFFFFF" rx="3" ry="3" style="stroke:#000000;stroke-width:1.0;"/><text fill="#000000" font-family="Verdana" font-size="14" lengthAdjust="spacing" textLength="151" x="514" y="678.7617">canViewReservation()</text><ellipse cx="507" cy="691.7085" fill="#FFFFFF" rx="3" ry="3" style="stroke:#000000;stroke-width:1.0;"/><text fill="#000000" font-family="Verdana" font-size="14" lengthAdjust="spacing" textLength="119" x="514" y="695.7764">canGenerateBill()</text><ellipse cx="507" cy="708.7231" fill="#FFFFFF" rx="3" ry="3" style="stroke:#000000;stroke-width:1.0;"/><text fill="#000000" font-family="Verdana" font-size="14" lengthAdjust="spacing" textLength="145" x="514" y="712.791">canViewDashboard()</text><ellipse cx="507" cy="725.7378" fill="#FFFFFF" rx="3" ry="3" style="stroke:#000000;stroke-width:1.0;"/><text fill="#000000" font-family="Verdana" font-size="14" lengthAdjust="spacing" textLength="114" x="514" y="729.8057">canAccessHelp()</text><line style="stroke:#00818A;stroke-width:1.0;stroke-dasharray:1.0,2.0;" x1="497" x2="512" y1="639.1646" y2="639.1646"/><text fill="#000000" font-family="Verdana" font-size="14" lengthAdjust="spacing" textLength="143" x="512" y="644.2324">inherited from USER</text><line style="stroke:#00818A;stroke-width:1.0;stroke-dasharray:1.0,2.0;" x1="655" x2="670" y1="639.1646" y2="639.1646"/></g><g id="elem_GMN4"><path d="M706.5,598.9746 L706.5,647.4746 L671.03,651.4746 L706.5,655.4746 L706.5,703.7705 A0,0 0 0 0 706.5,703.7705 L922.5,703.7705 A0,0 0 0 0 922.5,703.7705 L922.5,608.9746 L912.5,598.9746 L706.5,598.9746 A0,0 0 0 0 706.5,598.9746 " fill="#E0F5F5" style="stroke:#00818A;stroke-width:1.0;"/><path d="M912.5,598.9746 L912.5,608.9746 L922.5,608.9746 L912.5,598.9746 " fill="#E0F5F5" style="stroke:#00818A;stroke-width:1.0;"/><text fill="#000000" font-family="Verdana" font-size="13" lengthAdjust="spacing" textLength="106" x="712.5" y="617.0444">&#171;Specialisation&#187;</text><text fill="#000000" font-family="Verdana" font-size="13" lengthAdjust="spacing" textLength="126" x="712.5" y="632.8438">Disjoint constraint:</text><text fill="#000000" font-family="Verdana" font-size="13" lengthAdjust="spacing" textLength="195" x="712.5" y="648.6431">A user is EITHER Receptionist</text><text fill="#000000" font-family="Verdana" font-size="13" lengthAdjust="spacing" textLength="172" x="712.5" y="664.4424">Only one role per account</text><text fill="#000000" font-family="Verdana" font-size="13" lengthAdjust="spacing" textLength="127" x="712.5" y="680.2417">Total participation:</text><text fill="#000000" font-family="Verdana" font-size="13" lengthAdjust="spacing" textLength="192" x="712.5" y="696.041">Every user MUST have a role</text></g><!--class RT--><g id="elem_RT"><rect codeLine="72" fill="#FFFFFF" height="178.2705" id="RT" rx="2.5" ry="2.5" style="stroke:#00818A;stroke-width:1.0;" width="285" x="138" y="562.4746"/><rect fill="#2C3E50" height="39.168" rx="2.5" ry="2.5" style="stroke:#2C3E50;stroke-width:1.0;" width="285" x="138" y="562.4746"/><rect fill="#2C3E50" height="2.5" style="stroke:#2C3E50;stroke-width:1.0;" width="285" x="138" y="599.1426"/><rect codeLine="72" fill="none" height="178.2705" id="RT" rx="2.5" ry="2.5" style="stroke:#00818A;stroke-width:1.0;" width="285" x="138" y="562.4746"/><ellipse cx="217.25" cy="582.0586" fill="#FFFFFF" rx="9" ry="9" style="stroke:#000000;stroke-width:1.0;"/><path d="M220.0156,583.5898 L222.4063,584.3398 Q221.8594,586.3242 220.5781,587.293 Q219.3125,588.2617 217.3438,588.2617 Q214.9219,588.2617 213.3594,586.6055 Q211.8125,584.9492 211.8125,582.0742 Q211.8125,579.043 213.375,577.3711 Q214.9375,575.6836 217.5,575.6836 Q219.7344,575.6836 221.125,576.9961 Q221.9531,577.7773 222.375,579.2461 L219.9375,579.8242 Q219.7188,578.8711 219.0313,578.3242 Q218.3594,577.7773 217.375,577.7773 Q216.0156,577.7773 215.1719,578.7617 Q214.3438,579.7305 214.3438,581.9023 Q214.3438,584.1992 215.1719,585.1836 Q216,586.168 217.3281,586.168 Q218.3125,586.168 219.0156,585.543 Q219.7188,584.918 220.0156,583.5898 Z " fill="#000000"/><text fill="#1A252F" font-family="Verdana" font-size="12" lengthAdjust="spacing" textLength="76" x="256.25" y="579.5391">ROOM_TYPE</text><text fill="#1A252F" font-family="Verdana" font-size="12" lengthAdjust="spacing" textLength="119" x="234.75" y="594.123">&#171;Reference Entity&#187;</text><line style="stroke:#00818A;stroke-width:1.0;" x1="139" x2="422" y1="601.6426" y2="601.6426"/><text fill="#000000" font-family="Verdana" font-size="14" lengthAdjust="spacing" textLength="179" x="144" y="619.7178">&#171;PK&#187; room_type_id : INT</text><line style="stroke:#00818A;stroke-width:1.0;stroke-dasharray:1.0,2.0;" x1="139" x2="422" y1="626.6572" y2="626.6572"/><text fill="#000000" font-family="Verdana" font-size="14" lengthAdjust="spacing" textLength="273" x="144" y="644.7324">room_code : VARCHAR(20) {UNIQUE}</text><text fill="#000000" font-family="Verdana" font-size="14" lengthAdjust="spacing" textLength="194" x="144" y="661.7471">type_name : VARCHAR(50)</text><text fill="#000000" font-family="Verdana" font-size="14" lengthAdjust="spacing" textLength="234" x="144" y="678.7617">price_per_night : DECIMAL(10,2)</text><text fill="#000000" font-family="Verdana" font-size="14" lengthAdjust="spacing" textLength="155" x="144" y="716.791">{NOT NULL: all fields}</text><text fill="#000000" font-family="Verdana" font-size="14" lengthAdjust="spacing" textLength="218" x="144" y="733.8057">{CHECK: price_per_night &gt; 0}</text><line style="stroke:#00818A;stroke-width:1.0;stroke-dasharray:1.0,2.0;" x1="139" x2="241" y1="694.2085" y2="694.2085"/><text fill="#000000" font-family="Verdana" font-size="14" lengthAdjust="spacing" textLength="79" x="241" y="699.2764">constraints</text><line style="stroke:#00818A;stroke-width:1.0;stroke-dasharray:1.0,2.0;" x1="320" x2="422" y1="694.2085" y2="694.2085"/></g><g id="elem_GMN8"><path d="M145.5,235.4746 L145.5,324.4712 A0,0 0 0 0 145.5,324.4712 L258.87,324.4712 L275.73,562.4146 L266.87,324.4712 L375.5,324.4712 A0,0 0 0 0 375.5,324.4712 L375.5,245.4746 L365.5,235.4746 L145.5,235.4746 A0,0 0 0 0 145.5,235.4746 " fill="#E0F5F5" style="stroke:#00818A;stroke-width:1.0;"/><path d="M365.5,235.4746 L365.5,245.4746 L375.5,245.4746 L365.5,235.4746 " fill="#E0F5F5" style="stroke:#00818A;stroke-width:1.0;"/><text fill="#000000" font-family="Verdana" font-size="13" lengthAdjust="spacing" textLength="182" x="151.5" y="253.5444">&#171;Weak Entity Dependency&#187;</text><text fill="#000000" font-family="Verdana" font-size="13" lengthAdjust="spacing" textLength="179" x="151.5" y="269.3438">RESERVATION cannot exist</text><text fill="#000000" font-family="Verdana" font-size="13" lengthAdjust="spacing" textLength="184" x="151.5" y="285.1431">without a valid ROOM_TYPE</text><text fill="#000000" font-family="Verdana" font-size="13" lengthAdjust="spacing" textLength="184" x="151.5" y="300.9424">Pre-seeded &#8212; 3 fixed types</text><text fill="#000000" font-family="Verdana" font-size="13" lengthAdjust="spacing" textLength="209" x="151.5" y="316.7417">OVR_001 / OVR_002 / OVR_003</text></g><!--class RES--><g id="elem_RES"><rect codeLine="95" fill="#FFFFFF" height="411.4609" id="RES" rx="2.5" ry="2.5" style="stroke:#00818A;stroke-width:1.0;" width="348" x="251.5" y="855.4746"/><rect fill="#2C3E50" height="39.168" rx="2.5" ry="2.5" style="stroke:#2C3E50;stroke-width:1.0;" width="348" x="251.5" y="855.4746"/><rect fill="#2C3E50" height="2.5" style="stroke:#2C3E50;stroke-width:1.0;" width="348" x="251.5" y="892.1426"/><rect codeLine="95" fill="none" height="411.4609" id="RES" rx="2.5" ry="2.5" style="stroke:#00818A;stroke-width:1.0;" width="348" x="251.5" y="855.4746"/><ellipse cx="340.25" cy="875.0586" fill="#FFFFFF" rx="9" ry="9" style="stroke:#000000;stroke-width:1.0;"/><path d="M343.0156,876.5898 L345.4063,877.3398 Q344.8594,879.3242 343.5781,880.293 Q342.3125,881.2617 340.3438,881.2617 Q337.9219,881.2617 336.3594,879.6055 Q334.8125,877.9492 334.8125,875.0742 Q334.8125,872.043 336.375,870.3711 Q337.9375,868.6836 340.5,868.6836 Q342.7344,868.6836 344.125,869.9961 Q344.9531,870.7773 345.375,872.2461 L342.9375,872.8242 Q342.7188,871.8711 342.0313,871.3242 Q341.3594,870.7773 340.375,870.7773 Q339.0156,870.7773 338.1719,871.7617 Q337.3438,872.7305 337.3438,874.9023 Q337.3438,877.1992 338.1719,878.1836 Q339,879.168 340.3281,879.168 Q341.3125,879.168 342.0156,878.543 Q342.7188,877.918 343.0156,876.5898 Z " fill="#000000"/><text fill="#1A252F" font-family="Verdana" font-size="12" lengthAdjust="spacing" textLength="87" x="395.75" y="872.5391">RESERVATION</text><text fill="#1A252F" font-family="Verdana" font-size="12" lengthAdjust="spacing" textLength="163" x="357.75" y="887.123">&#171;Core Transaction Entity&#187;</text><line style="stroke:#00818A;stroke-width:1.0;" x1="252.5" x2="598.5" y1="894.6426" y2="894.6426"/><text fill="#000000" font-family="Verdana" font-size="14" lengthAdjust="spacing" textLength="181" x="257.5" y="912.7178">&#171;PK&#187; reservation_id : INT</text><text fill="#000000" font-family="Verdana" font-size="14" lengthAdjust="spacing" textLength="336" x="257.5" y="950.7471">reservation_number : VARCHAR(30) {UNIQUE}</text><line style="stroke:#00818A;stroke-width:1.0;stroke-dasharray:1.0,2.0;" x1="252.5" x2="356.5" y1="928.1646" y2="928.1646"/><text fill="#000000" font-family="Verdana" font-size="14" lengthAdjust="spacing" textLength="138" x="356.5" y="933.2324">identifying attribute</text><line style="stroke:#00818A;stroke-width:1.0;stroke-dasharray:1.0,2.0;" x1="494.5" x2="598.5" y1="928.1646" y2="928.1646"/><text fill="#000000" font-family="Verdana" font-size="14" lengthAdjust="spacing" textLength="212" x="257.5" y="988.7764">guest_name : VARCHAR(100)</text><text fill="#000000" font-family="Verdana" font-size="14" lengthAdjust="spacing" textLength="109" x="257.5" y="1005.791">address : TEXT</text><text fill="#000000" font-family="Verdana" font-size="14" lengthAdjust="spacing" textLength="231" x="257.5" y="1022.8057">contact_number : VARCHAR(15)</text><line style="stroke:#00818A;stroke-width:1.0;stroke-dasharray:1.0,2.0;" x1="252.5" x2="323.5" y1="966.1938" y2="966.1938"/><text fill="#000000" font-family="Verdana" font-size="14" lengthAdjust="spacing" textLength="204" x="323.5" y="971.2617">guest attributes (embedded)</text><line style="stroke:#00818A;stroke-width:1.0;stroke-dasharray:1.0,2.0;" x1="527.5" x2="598.5" y1="966.1938" y2="966.1938"/><text fill="#000000" font-family="Verdana" font-size="14" lengthAdjust="spacing" textLength="179" x="257.5" y="1060.835">&#171;FK&#187; room_type_id : INT</text><line style="stroke:#00818A;stroke-width:1.0;stroke-dasharray:1.0,2.0;" x1="252.5" x2="386.5" y1="1038.2524" y2="1038.2524"/><text fill="#000000" font-family="Verdana" font-size="14" lengthAdjust="spacing" textLength="78" x="386.5" y="1043.3203">foreign key</text><line style="stroke:#00818A;stroke-width:1.0;stroke-dasharray:1.0,2.0;" x1="464.5" x2="598.5" y1="1038.2524" y2="1038.2524"/><text fill="#000000" font-family="Verdana" font-size="14" lengthAdjust="spacing" textLength="155" x="257.5" y="1098.8643">check_in_date : DATE</text><text fill="#000000" font-family="Verdana" font-size="14" lengthAdjust="spacing" textLength="167" x="257.5" y="1115.8789">check_out_date : DATE</text><text fill="#000000" font-family="Verdana" font-size="14" lengthAdjust="spacing" textLength="314" x="257.5" y="1132.8936">created_at : TIMESTAMP {DEFAULT NOW()}</text><line style="stroke:#00818A;stroke-width:1.0;stroke-dasharray:1.0,2.0;" x1="252.5" x2="357.5" y1="1076.2817" y2="1076.2817"/><text fill="#000000" font-family="Verdana" font-size="14" lengthAdjust="spacing" textLength="136" x="357.5" y="1081.3496">temporal attributes</text><line style="stroke:#00818A;stroke-width:1.0;stroke-dasharray:1.0,2.0;" x1="493.5" x2="598.5" y1="1076.2817" y2="1076.2817"/><text fill="#000000" font-family="Verdana" font-size="14" lengthAdjust="spacing" textLength="273" x="257.5" y="1170.9229">/ total_nights : (check_out - check_in)</text><text fill="#000000" font-family="Verdana" font-size="14" lengthAdjust="spacing" textLength="285" x="257.5" y="1187.9375">/ total_cost : (nights &#215; price_per_night)</text><line style="stroke:#00818A;stroke-width:1.0;stroke-dasharray:1.0,2.0;" x1="252.5" x2="363" y1="1148.3403" y2="1148.3403"/><text fill="#000000" font-family="Verdana" font-size="14" lengthAdjust="spacing" textLength="125" x="363" y="1153.4082">derived attributes</text><line style="stroke:#00818A;stroke-width:1.0;stroke-dasharray:1.0,2.0;" x1="488" x2="598.5" y1="1148.3403" y2="1148.3403"/><text fill="#000000" font-family="Verdana" font-size="14" lengthAdjust="spacing" textLength="155" x="257.5" y="1225.9668">{NOT NULL: all fields}</text><text fill="#000000" font-family="Verdana" font-size="14" lengthAdjust="spacing" textLength="231" x="257.5" y="1242.9814">{CHECK: check_out &gt; check_in}</text><text fill="#000000" font-family="Verdana" font-size="14" lengthAdjust="spacing" textLength="297" x="257.5" y="1259.9961">{CHECK: contact_number ~ /^\d{10}$/}</text><line style="stroke:#00818A;stroke-width:1.0;stroke-dasharray:1.0,2.0;" x1="252.5" x2="386" y1="1203.3843" y2="1203.3843"/><text fill="#000000" font-family="Verdana" font-size="14" lengthAdjust="spacing" textLength="79" x="386" y="1208.4521">constraints</text><line style="stroke:#00818A;stroke-width:1.0;stroke-dasharray:1.0,2.0;" x1="465" x2="598.5" y1="1203.3843" y2="1203.3843"/></g><g id="elem_GMN12"><path d="M11,1008.4746 L11,1113.2705 A0,0 0 0 0 11,1113.2705 L216,1113.2705 A0,0 0 0 0 216,1113.2705 L216,1064.9746 L251.34,1060.9746 L216,1056.9746 L216,1018.4746 L206,1008.4746 L11,1008.4746 A0,0 0 0 0 11,1008.4746 " fill="#E0F5F5" style="stroke:#00818A;stroke-width:1.0;"/><path d="M206,1008.4746 L206,1018.4746 L216,1018.4746 L206,1008.4746 " fill="#E0F5F5" style="stroke:#00818A;stroke-width:1.0;"/><text fill="#000000" font-family="Verdana" font-size="13" lengthAdjust="spacing" textLength="136" x="17" y="1026.5444">&#171;Derived Attributes&#187;</text><text fill="#000000" font-family="Verdana" font-size="13" lengthAdjust="spacing" textLength="181" x="17" y="1042.3438">total_nights and total_cost</text><text fill="#000000" font-family="Verdana" font-size="13" lengthAdjust="spacing" textLength="139" x="17" y="1058.1431">are NOT stored in DB</text><text fill="#000000" font-family="Verdana" font-size="13" lengthAdjust="spacing" textLength="163" x="17" y="1073.9424">Calculated at runtime by</text><text fill="#000000" font-family="Verdana" font-size="13" lengthAdjust="spacing" textLength="184" x="17" y="1089.7417">BillService.calculateNights()</text><text fill="#000000" font-family="Verdana" font-size="13" lengthAdjust="spacing" textLength="177" x="17" y="1105.541">BillService.calculateTotal()</text></g><!--class BILL--><g id="elem_BILL"><rect codeLine="131" fill="#FFFFFF" height="225.3145" id="BILL" rx="2.5" ry="2.5" style="stroke:#00818A;stroke-width:1.0;" width="213" x="319" y="1381.4746"/><rect fill="#2C3E50" height="39.168" rx="2.5" ry="2.5" style="stroke:#2C3E50;stroke-width:1.0;" width="213" x="319" y="1381.4746"/><rect fill="#2C3E50" height="2.5" style="stroke:#2C3E50;stroke-width:1.0;" width="213" x="319" y="1418.1426"/><rect codeLine="131" fill="none" height="225.3145" id="BILL" rx="2.5" ry="2.5" style="stroke:#00818A;stroke-width:1.0;" width="213" x="319" y="1381.4746"/><ellipse cx="354.05" cy="1401.0586" fill="#FFFFFF" rx="9" ry="9" style="stroke:#000000;stroke-width:1.0;"/><path d="M356.8156,1402.5898 L359.2063,1403.3398 Q358.6594,1405.3242 357.3781,1406.293 Q356.1125,1407.2617 354.1438,1407.2617 Q351.7219,1407.2617 350.1594,1405.6055 Q348.6125,1403.9492 348.6125,1401.0742 Q348.6125,1398.043 350.175,1396.3711 Q351.7375,1394.6836 354.3,1394.6836 Q356.5344,1394.6836 357.925,1395.9961 Q358.7531,1396.7773 359.175,1398.2461 L356.7375,1398.8242 Q356.5188,1397.8711 355.8313,1397.3242 Q355.1594,1396.7773 354.175,1396.7773 Q352.8156,1396.7773 351.9719,1397.7617 Q351.1438,1398.7305 351.1438,1400.9023 Q351.1438,1403.1992 351.9719,1404.1836 Q352.8,1405.168 354.1281,1405.168 Q355.1125,1405.168 355.8156,1404.543 Q356.5188,1403.918 356.8156,1402.5898 Z " fill="#000000"/><text fill="#1A252F" font-family="Verdana" font-size="12" lengthAdjust="spacing" textLength="27" x="425.45" y="1398.5391">BILL</text><text fill="#1A252F" font-family="Verdana" font-size="12" lengthAdjust="spacing" textLength="136" x="370.95" y="1413.123">&#171;Derived / Transient&#187;</text><line style="stroke:#00818A;stroke-width:1.0;" x1="320" x2="531" y1="1420.6426" y2="1420.6426"/><text fill="#000000" font-family="Verdana" font-size="14" lengthAdjust="spacing" textLength="136" x="325" y="1438.7178">&#171;not stored in DB&#187;</text><text fill="#000000" font-family="Verdana" font-size="14" lengthAdjust="spacing" textLength="101" x="325" y="1476.7471">/ nights : long</text><text fill="#000000" font-family="Verdana" font-size="14" lengthAdjust="spacing" textLength="169" x="325" y="1493.7617">/ total_amount : double</text><line style="stroke:#00818A;stroke-width:1.0;stroke-dasharray:1.0,2.0;" x1="320" x2="351.5" y1="1454.1646" y2="1454.1646"/><text fill="#000000" font-family="Verdana" font-size="14" lengthAdjust="spacing" textLength="148" x="351.5" y="1459.2324">computed at runtime</text><line style="stroke:#00818A;stroke-width:1.0;stroke-dasharray:1.0,2.0;" x1="499.5" x2="531" y1="1454.1646" y2="1454.1646"/><text fill="#000000" font-family="Verdana" font-size="14" lengthAdjust="spacing" textLength="201" x="325" y="1531.791">reservation_number : String</text><text fill="#000000" font-family="Verdana" font-size="14" lengthAdjust="spacing" textLength="183" x="325" y="1548.8057">room_type_name : String</text><text fill="#000000" font-family="Verdana" font-size="14" lengthAdjust="spacing" textLength="173" x="325" y="1565.8203">price_per_night : double</text><text fill="#000000" font-family="Verdana" font-size="14" lengthAdjust="spacing" textLength="149" x="325" y="1582.835">check_in_date : Date</text><text fill="#000000" font-family="Verdana" font-size="14" lengthAdjust="spacing" textLength="161" x="325" y="1599.8496">check_out_date : Date</text><line style="stroke:#00818A;stroke-width:1.0;stroke-dasharray:1.0,2.0;" x1="320" x2="402" y1="1509.2085" y2="1509.2085"/><text fill="#000000" font-family="Verdana" font-size="14" lengthAdjust="spacing" textLength="47" x="402" y="1514.2764">source</text><line style="stroke:#00818A;stroke-width:1.0;stroke-dasharray:1.0,2.0;" x1="449" x2="531" y1="1509.2085" y2="1509.2085"/></g><g id="elem_GMN16"><path d="M299.5,1667.4746 L299.5,1788.0698 A0,0 0 0 0 299.5,1788.0698 L551.5,1788.0698 A0,0 0 0 0 551.5,1788.0698 L551.5,1677.4746 L541.5,1667.4746 L429.5,1667.4746 L425.5,1606.5546 L421.5,1667.4746 L299.5,1667.4746 A0,0 0 0 0 299.5,1667.4746 " fill="#E0F5F5" style="stroke:#00818A;stroke-width:1.0;"/><path d="M541.5,1667.4746 L541.5,1677.4746 L551.5,1677.4746 L541.5,1667.4746 " fill="#E0F5F5" style="stroke:#00818A;stroke-width:1.0;"/><text fill="#000000" font-family="Verdana" font-size="13" lengthAdjust="spacing" textLength="122" x="305.5" y="1685.5444">&#171;Transient Entity&#187;</text><text fill="#000000" font-family="Verdana" font-size="13" lengthAdjust="spacing" textLength="201" x="305.5" y="1701.3438">Bill is NOT a separate DB table</text><text fill="#000000" font-family="Verdana" font-size="13" lengthAdjust="spacing" textLength="231" x="305.5" y="1717.1431">Computed on-the-fly by BillService</text><text fill="#000000" font-family="Verdana" font-size="13" lengthAdjust="spacing" textLength="57" x="305.5" y="1732.9424">Formula:</text><text fill="#000000" font-family="Verdana" font-size="13" lengthAdjust="spacing" textLength="193" x="305.5" y="1748.7417">nights = checkOut &#8722; checkIn</text><text fill="#000000" font-family="Verdana" font-size="13" lengthAdjust="spacing" textLength="203" x="305.5" y="1764.541">total  = nights &#215; pricePerNight</text><text fill="#000000" font-family="Verdana" font-size="13" lengthAdjust="spacing" textLength="220" x="305.5" y="1780.3403">minimum charge = 1 night always</text></g><g id="elem_CONSTRAINTS"><path d="M829.5,85.4746 L829.5,474.6582 L1183.5,474.6582 L1183.5,95.4746 L1173.5,85.4746 L829.5,85.4746 " fill="#E0F5F5" style="stroke:#00818A;stroke-width:1.0;"/><path d="M1173.5,85.4746 L1173.5,95.4746 L1183.5,95.4746 L1173.5,85.4746 " fill="#E0F5F5" style="stroke:#00818A;stroke-width:1.0;"/><text fill="#000000" font-family="Verdana" font-size="13" lengthAdjust="spacing" textLength="220" x="835.5" y="103.5444">&#171;Database Integrity Constraints&#187;</text><text fill="#000000" font-family="Verdana" font-size="13" lengthAdjust="spacing" textLength="333" x="835.5" y="119.3438">&#9472;&#9472;&#9472;&#9472;&#9472;&#9472;&#9472;&#9472;&#9472;&#9472;&#9472;&#9472;&#9472;&#9472;&#9472;&#9472;&#9472;&#9472;&#9472;&#9472;&#9472;&#9472;&#9472;&#9472;&#9472;&#9472;&#9472;&#9472;&#9472;&#9472;&#9472;&#9472;&#9472;&#9472;&#9472;&#9472;&#9472;</text><text fill="#000000" font-family="Verdana" font-size="13" lengthAdjust="spacing" textLength="103" x="835.5" y="135.1431">PRIMARY KEYS:</text><text fill="#000000" font-family="Verdana" font-size="13" lengthAdjust="spacing" textLength="249" x="845.5" y="150.9424">user_id, room_type_id, reservation_id</text><text fill="#000000" font-family="Verdana" font-size="13" lengthAdjust="spacing" textLength="152" x="845.5" y="166.7417">(all AUTO_INCREMENT)</text><text fill="#000000" font-family="Verdana" font-size="13" lengthAdjust="spacing" textLength="5" x="835.5" y="182.541">&#160;</text><text fill="#000000" font-family="Verdana" font-size="13" lengthAdjust="spacing" textLength="93" x="835.5" y="198.3403">FOREIGN KEY:</text><text fill="#000000" font-family="Verdana" font-size="13" lengthAdjust="spacing" textLength="175" x="845.5" y="214.1396">reservations.room_type_id</text><text fill="#000000" font-family="Verdana" font-size="13" lengthAdjust="spacing" textLength="189" x="845.5" y="229.939">&#8594; room_types.room_type_id</text><text fill="#000000" font-family="Verdana" font-size="13" lengthAdjust="spacing" textLength="143" x="845.5" y="245.7383">ON DELETE RESTRICT</text><text fill="#000000" font-family="Verdana" font-size="13" lengthAdjust="spacing" textLength="143" x="845.5" y="261.5376">ON UPDATE CASCADE</text><text fill="#000000" font-family="Verdana" font-size="13" lengthAdjust="spacing" textLength="5" x="835.5" y="277.3369">&#160;</text><text fill="#000000" font-family="Verdana" font-size="13" lengthAdjust="spacing" textLength="156" x="835.5" y="293.1362">UNIQUE CONSTRAINTS:</text><text fill="#000000" font-family="Verdana" font-size="13" lengthAdjust="spacing" textLength="103" x="845.5" y="308.9355">users.username</text><text fill="#000000" font-family="Verdana" font-size="13" lengthAdjust="spacing" textLength="73" x="845.5" y="324.7349">users.email</text><text fill="#000000" font-family="Verdana" font-size="13" lengthAdjust="spacing" textLength="154" x="845.5" y="340.5342">room_types.room_code</text><text fill="#000000" font-family="Verdana" font-size="13" lengthAdjust="spacing" textLength="216" x="845.5" y="356.3335">reservations.reservation_number</text><text fill="#000000" font-family="Verdana" font-size="13" lengthAdjust="spacing" textLength="5" x="835.5" y="372.1328">&#160;</text><text fill="#000000" font-family="Verdana" font-size="13" lengthAdjust="spacing" textLength="240" x="835.5" y="387.9321">APPLICATION-LEVEL CONSTRAINTS:</text><text fill="#000000" font-family="Verdana" font-size="13" lengthAdjust="spacing" textLength="222" x="845.5" y="403.7314">check_out_date &gt; check_in_date</text><text fill="#000000" font-family="Verdana" font-size="13" lengthAdjust="spacing" textLength="227" x="845.5" y="419.5308">contact_number must be 10 digits</text><text fill="#000000" font-family="Verdana" font-size="13" lengthAdjust="spacing" textLength="271" x="845.5" y="435.3301">check_in_date &gt;= today (no past dates)</text><text fill="#000000" font-family="Verdana" font-size="13" lengthAdjust="spacing" textLength="260" x="845.5" y="451.1294">password stored as SHA-256 hash only</text><text fill="#000000" font-family="Verdana" font-size="13" lengthAdjust="spacing" textLength="184" x="845.5" y="466.9287">OTP expires after 5 minutes</text></g><!--reverse link USER to REC--><g id="link_USER_REC"><path codeLine="158" d="M595.306,420.9609 C592.556,474.4609 590.31,517.9446 587.83,566.2346 " fill="none" id="USER-backto-REC" style="stroke:#00818A;stroke-width:1.0;"/><polygon fill="none" points="596.23,402.9846,589.3139,420.6529,601.2981,421.2689,596.23,402.9846" style="stroke:#00818A;stroke-width:1.0;"/><text fill="#2C3E50" font-family="Verdana" font-size="11" lengthAdjust="spacing" textLength="94" x="592.5" y="516.5337">&#171;generalisation&#187;</text><text fill="#2C3E50" font-family="Verdana" font-size="11" lengthAdjust="spacing" textLength="88" x="595.5" y="529.9023">{disjoint, total}</text></g><!--link REC to RES--><g id="link_REC_RES"><path codeLine="160" d="M550.76,736.9046 C537.29,771.6446 523.2298,807.9307 506.9698,849.8507 " fill="none" id="REC-to-RES" style="stroke:#00818A;stroke-width:1.0;"/><polygon fill="#00818A" points="504.8,855.4446,511.784,848.5002,506.6082,850.783,504.3254,845.6072,504.8,855.4446" style="stroke:#00818A;stroke-width:1.0;"/><polygon fill="#2C3E50" points="568.054,781.8884,572.862,775.9916,568.4777,774.2918,568.054,781.8884" style="stroke:#2C3E50;stroke-width:1.0;"/><text fill="#2C3E50" font-family="Verdana" font-size="11" lengthAdjust="spacing" textLength="42" x="576.5" y="782.5337">creates</text><text fill="#2C3E50" font-family="Verdana" font-size="11" lengthAdjust="spacing" textLength="93" x="545.5" y="795.9023">One receptionist</text><text fill="#2C3E50" font-family="Verdana" font-size="11" lengthAdjust="spacing" textLength="87" x="548.5" y="809.271">creates zero or</text><text fill="#2C3E50" font-family="Verdana" font-size="11" lengthAdjust="spacing" textLength="107" x="538.5" y="822.6396">many reservations</text><text fill="#2C3E50" font-family="Verdana" font-size="11" lengthAdjust="spacing" textLength="7" x="540.6456" y="755.8681">1</text><text fill="#2C3E50" font-family="Verdana" font-size="11" lengthAdjust="spacing" textLength="22" x="485.468" y="845.2195">0..*</text></g><!--link RT to RES--><g id="link_RT_RES"><path codeLine="162" d="M311.87,740.6446 C323.95,774.5746 336.2892,809.2516 350.6492,849.6216 " fill="none" id="RT-to-RES" style="stroke:#00818A;stroke-width:1.0;"/><polygon fill="#00818A" points="352.66,855.2746,353.4124,845.4545,350.9843,850.5638,345.8751,848.1356,352.66,855.2746" style="stroke:#00818A;stroke-width:1.0;"/><polygon fill="#2C3E50" points="370.341,781.9274,370.1302,774.3219,365.7,775.8984,370.341,781.9274" style="stroke:#2C3E50;stroke-width:1.0;"/><text fill="#2C3E50" font-family="Verdana" font-size="11" lengthAdjust="spacing" textLength="65" x="376" y="782.5337">assigned to</text><text fill="#2C3E50" font-family="Verdana" font-size="11" lengthAdjust="spacing" textLength="86" x="360" y="795.9023">One room type</text><text fill="#2C3E50" font-family="Verdana" font-size="11" lengthAdjust="spacing" textLength="89" x="358.5" y="809.271">appears in zero</text><text fill="#2C3E50" font-family="Verdana" font-size="11" lengthAdjust="spacing" textLength="123" x="341.5" y="822.6396">or many reservations</text><text fill="#2C3E50" font-family="Verdana" font-size="11" lengthAdjust="spacing" textLength="7" x="307.2651" y="759.9295">1</text><text fill="#2C3E50" font-family="Verdana" font-size="11" lengthAdjust="spacing" textLength="22" x="327.385" y="845.0428">0..*</text></g><!--link RES to BILL--><g id="link_RES_BILL"><path codeLine="164" d="M425.5,1266.7446 C425.5,1306.2746 425.5,1340.2846 425.5,1375.4446 " fill="none" id="RES-to-BILL" style="stroke:#00818A;stroke-width:1.0;stroke-dasharray:7.0,7.0;"/><polygon fill="#00818A" points="425.5,1381.4446,429.5,1372.4446,425.5,1376.4446,421.5,1372.4446,425.5,1381.4446" style="stroke:#00818A;stroke-width:1.0;"/><text fill="#2C3E50" font-family="Verdana" font-size="11" lengthAdjust="spacing" textLength="56" x="449.5" y="1308.5337">&#171;derives&#187;</text><text fill="#2C3E50" font-family="Verdana" font-size="11" lengthAdjust="spacing" textLength="96" x="429.5" y="1321.9023">Each reservation</text><text fill="#2C3E50" font-family="Verdana" font-size="11" lengthAdjust="spacing" textLength="102" x="426.5" y="1335.271">generates exactly</text><text fill="#2C3E50" font-family="Verdana" font-size="11" lengthAdjust="spacing" textLength="101" x="427" y="1348.6396">one computed bill</text><text fill="#2C3E50" font-family="Verdana" font-size="11" lengthAdjust="spacing" textLength="7" x="418.3633" y="1286.0937">1</text><text fill="#2C3E50" font-family="Verdana" font-size="11" lengthAdjust="spacing" textLength="7" x="418.2539" y="1371.1363">1</text></g><!--SRC=[pLXHRoB94Nxth-WuaHOIWu4zBYVaHHh3-8mM0vaPl5a91JKp3NGyT8-w6tivnwTxYl8OdIxA3ye_yIz9LGyCC-1Sf3pai90CLTtLLTrVVLNTlp9Bjc8aYIaNP_g1YuGgkY8p6Zuib5oBg2DZgSYlRxww-VtDrsUv8M5CjIRFPuHS7mssVwYHAc9gAwtLlgb_uu3qbb6G7irgTDwxpLgclv727DhBoUgqqMpCjpAVVyT8lN7sadTGICFUzi-jtJHlcl_1lu8DgfHyiaOEWyYvaZc-TwMEPWmtCIF3a551xZbx8XxJKXdo-iDFn1LBAa8MmHSOjW5LJ0sNGYzvGagkwvL9bzC5-30HfK_SBCbmE08dO4vYT8lu2GivZRcsiox8jqmmbViD8xLHSAX6by_Etf7NV_pz5_o00_vuv7gTlkFxDlwnxtgaLFIw_ClxUPQY-XpTcuYhAt-TC9NABW_skDq-9rIdWI10hgv67zjjijPCJNb4MgGt241ShQweYAYHQaEeCOhFreRfQXLKE5HGoBuMkNUypgtZbPgrCdaU3tf_6BilC2A1XPy0ezCbrSlSi4QpMGOrMr4UvyJrMd6wad7UUADMjWx91FsdyQ4_qYJJK4QiOB6yLR0l2OSGMYJetRb-uDoDhArmZpDhutam3CXWtE-til0kYc5Sf6vVMEzUC4zE0ftN5fjkYivYTX4vjySCuqfThlyi8TeB4aW3MpYYol2G9wS6OC_jkAEWDnpq_205yingjgW5jGMjHSW7yYu__9qzM2wMJ74333LNScNZjmVyEn9IuKGHS1bJZpRiKdadHvPxKv6cZc7NF8wBmxi0YPcaAjgBdJ1aMj-oE04PuCCIkUABfS6J05TjjXNFgDq6uUvmo1wLBH0x5eg4Q-BsWbj8LuyXYy8ihWteXoBU42bOkXkGy8I68PGBrAMddEHF6KswZmoImPgz6_i1MT97HgWrSCP4P6lFIG3R6mxlIF1vv5fSzwLyM2T0PHwRCyMWc6phpma15noUeiE8saCtT-WDyeohf5nDpIPXHTgrw0RD0QCrYXHfvnsJC7AluY6R0XgcmaAlHRfkftVdz84KBnhb_yP-D8x9dBCuqhZCS-VMxNni7HbjazfB1d4Z4mlmmCRsYT67NNVGPGcW2ZPYOt7kkP2DzmxcA-OBJ2RiIuhb9sWLvDe05XyXDoAIRIVeHefLD6CHv3I2uJtuzmM-unPeJ8DxRrghrG4TwRT6zktzYM4w5pu6qf6A4TokIzyeAHQdX-czmuXgws-WgD0qjFMb26weGNbqx-cqY6yEU31ylk4GS5R8KzZdfeZrQWOajGVt-oB-gzN5cccJQmL8YS6K251IjjQi_Z15iDC07OqYM4nZL-3-4Ts2X30GrF6ozMQQCNE8dIy4UM0RQ_tgwkPdSjYmLIBLSQSIBbduCELY2eqLkjLr0ZSJ0_mFvOh1xsXAJRv_8SzTzyOPzo5ZXvzAvNGtu3h07o4f3XQyXEI4Gf1cBSPRojOYbSoTScvaA3MkLjhE-DS_3tF_VsIG_RhjRDs2ldW2tvFBFqsYvthjvJUNUwQ9sNnRItrx1jrjr4uMjUMPGipGnUP2myC75AEt6dfRcCi5wLxZHOd6uJh6_OPD90hAA0Vep3PutOBgxmCqOH-guMxOm9gtrVzDlQt0e3uf2hhkzVkMUtOxTmaij4hM6FNsadOwz8FE8k_iVRNamu4_jfnZmqb91uj9_aGj412ds-ZsPxfDZ2mbOg3UN0BG5RPG88_aUWPj4LhHSgt2do4fu6zkZUpvO4iycUQuB6VsZrW1_ht92YZVfS9C6WFzBIG3ReBTWcntCcBUOXDRI4Gy9PhX-m1CxruJGzFbCm18KJ5BLfb3LpdRv45jdmZK2c2DFUHsupwa3WuXer__zcFweoTssKT0Vq0X8wPipi2G5HTyjLx19AeMsCZNqy707Kzqeq-jRFTj2VHlUoEVV89Md7GShziREFrUyFa4qiLUvQ_-KgdOwr4BaB0ukF5Fn7EKNG3j-G2CSF1v_PnKAcroNgjMVtjkQtXhMtOqWMb3l5taRXqJiLD-nvGaKat4YefDFYiqM0xUDWnP3JKKMpUP6OU4iPtSHD0aOLHfJ5yqFX5IaRUCWocqNgssxN_B0HXqMW8rHklIS9cVDX6BxKLEGyS9PIRUW7bOFgE76Q3z9D06fT-vTdoNT01nWUT0I-73DV_kpl5E0MkMUu1vSzwbbPW2dL3DI4yOjb3O_EUUyYmJlVxqm__pWnS7huVRHZwwdtraBh9xvReeD6uN1ysg7Ld2DiOP1yDfRz3nt3jt49JFa0Y7djlxTe0sKvDvT5RpPgtszQy_xjTwGmzNWQxRTmCNKoJmUfrW9nwFi0i4gl4xJjV5fTFkDx_r-w1qTVTibHFP1wlKoGCNy7BvXlT7jGsNTKQZVgzZAR3IT-_T_h471wMgNInfwP1YVxTQGvivOwHU8n5VSADpTdQLiFq1Y2AY6sX69Rx56O9YNRP3Tszpkw8FcFHldKgZ-JMnZuvIn9jqAuCHiO-0aFjqRc3j9jOVR1RtTURV]--></g></svg>